<?xml version="1.0" ?><!DOCTYPE svg  PUBLIC '-//W3C//DTD SVG 1.1//EN'  'http://www.w3.org/Graphics/SVG/1.1/DTD/svg11.dtd'><svg height="512px" id="Layer_1" style="enable-background:new 0 0 512 512;" version="1.1" viewBox="0 0 512 512" width="512px" xml:space="preserve" xmlns="http://www.w3.org/2000/svg" xmlns:xlink="http://www.w3.org/1999/xlink"><g id="social_x5F_2"><g><circle cx="255.672" cy="255.93" r="256" style="fill:#FDC062;"/><path d="M255.672,511.93c141.386,0,256-114.612,256-256c0-68.799-27.191-131.209-71.346-177.209    L76.119,438.35C122.328,483.836,185.71,511.93,255.672,511.93z" style="fill:#F3B25D;"/><g><path d="M181.013,305.885c-22.726-0.453-41.468,17.965-41.604,41.502     c-0.087,23.931,18.968,43.539,42.363,43.529c23.063-0.044,41.176-19.32,40.688-42.705     C221.941,325.152,203.495,306.338,181.013,305.885z" style="fill:#FFFFFF;"/><path d="M140.644,95.316l-0.289,53.03c122.338,10.235,221.752,111.795,230.622,238.89l53.556-0.066     C411.145,232.428,289.519,109.125,140.644,95.316z" style="fill:#FFFFFF;"/><path d="M140.22,188.65c-0.029,0-0.029,0-0.029,0l-0.264,54.457c0.961,0,1.949,0,2.906,0.03     c71.631,2.642,129.956,61.886,132.804,135.507c0.135,2.907,0.087,5.782,0.045,8.657l54.518-0.045     c-0.066-1.867-0.087-3.728-0.201-5.595C324.202,277.375,241.466,193.792,140.22,188.65z" style="fill:#FFFFFF;"/></g><path d="M331.319,186.357l-35.596,35.147c42.637,42.806,70.729,100.931,75.253,165.73l53.555-0.066    C417.748,308.764,383.144,238.465,331.319,186.357z M269.9,247.003l-36.317,35.862c24.706,24.465,40.604,58.24,42.055,95.779    c0.135,2.907,0.087,5.782,0.045,8.657l54.519-0.045c-0.067-1.867-0.088-3.728-0.202-5.595    C327.072,329.018,304.523,281.668,269.9,247.003z M203.132,312.932l-57.619,56.896c7.426,12.602,20.884,21.097,36.261,21.09    c23.063-0.044,41.177-19.32,40.688-42.705C222.131,333.486,214.468,320.518,203.132,312.932z" style="fill:#F1F2F2;"/></g></g><g id="Layer_1_1_"/></svg>